<svg width="24" height="25" viewBox="0 0 24 25" fill="none" xmlns="http://www.w3.org/2000/svg">
<path d="M19 3.5H5C3.89543 3.5 3 4.39543 3 5.5V19.5C3 20.6046 3.89543 21.5 5 21.5H19C20.1046 21.5 21 20.6046 21 19.5V5.5C21 4.39543 20.1046 3.5 19 3.5Z" stroke="#868E96" stroke-width="1.5" stroke-linecap="round" stroke-linejoin="round"/>
<path d="M9 11.5C10.1046 11.5 11 10.6046 11 9.5C11 8.39543 10.1046 7.5 9 7.5C7.89543 7.5 7 8.39543 7 9.5C7 10.6046 7.89543 11.5 9 11.5Z" stroke="#868E96" stroke-width="1.5" stroke-linecap="round" stroke-linejoin="round"/>
<path d="M21 15.4999L17.914 12.4139C17.5389 12.039 17.0303 11.8284 16.5 11.8284C15.9697 11.8284 15.4611 12.039 15.086 12.4139L6 21.4999" stroke="#868E96" stroke-width="1.5" stroke-linecap="round" stroke-linejoin="round"/>
</svg>
