<svg width="25" height="24" viewBox="0 0 25 24" fill="none" xmlns="http://www.w3.org/2000/svg">
<path d="M17.8311 21.1976C16.7972 22.253 15.6685 22.0864 14.5819 21.5864C13.4321 21.0754 12.3771 21.0532 11.164 21.5864C9.64491 22.2752 8.84317 22.0752 7.93595 21.1976C2.78795 15.6094 3.54749 7.09936 9.39173 6.78828C10.8159 6.86605 11.8075 7.6104 12.6409 7.67706C13.8857 7.41043 15.0777 6.64386 16.4069 6.74385C17.9998 6.87716 19.2025 7.54374 19.9936 8.74359C16.7023 10.8211 17.4829 15.3872 20.5 16.6648C19.8987 18.3313 19.1181 19.9866 17.8205 21.2087L17.8311 21.1976ZM12.5354 6.72163C12.3771 4.24416 14.2865 2.19997 16.4808 2C16.7867 4.8663 14.0123 6.99937 12.5354 6.72163Z" fill="white"/>
</svg>
