<svg width="161" height="160" viewBox="0 0 161 160" fill="none" xmlns="http://www.w3.org/2000/svg">
<path d="M84.8434 116.943L66.5933 112.274L57.3187 148.519L75.5688 153.189L84.8434 116.943Z" fill="white"/>
<path fill-rule="evenodd" clip-rule="evenodd" d="M65.3201 111.948C65.5 111.245 66.2159 110.82 66.9191 111L85.1693 115.67C85.8725 115.85 86.2966 116.566 86.1167 117.269L76.8421 153.515C76.6621 154.218 75.9462 154.642 75.243 154.462L56.9929 149.792C56.2897 149.612 55.8655 148.897 56.0454 148.193L65.3201 111.948ZM67.5408 113.873L58.9178 147.572L74.6213 151.59L83.2444 117.891L67.5408 113.873Z" fill="#474747"/>
<path d="M79.5299 137.952L75.5871 153.198L43.0809 144.874C45.2713 136.463 53.8579 131.381 62.2692 133.484L66.6501 134.623" fill="white"/>
<path fill-rule="evenodd" clip-rule="evenodd" d="M44.7428 143.943L74.643 151.599L78.2575 137.623C78.4393 136.92 79.1563 136.498 79.859 136.68C80.5617 136.862 80.9841 137.579 80.8023 138.281L76.8595 153.527C76.6781 154.228 75.9631 154.651 75.2611 154.471L42.7549 146.147C42.4163 146.06 42.1262 145.843 41.9487 145.541C41.7712 145.24 41.7209 144.881 41.809 144.543C44.1813 135.433 53.4779 129.931 62.588 132.209L62.5999 132.212L66.9808 133.351C67.6833 133.533 68.1047 134.251 67.9221 134.953C67.7394 135.656 67.0219 136.077 66.3194 135.895L61.9446 134.757C54.6644 132.94 47.2394 136.994 44.7428 143.943Z" fill="#474747"/>
<path d="M106.253 115.873H87.4155V153.286H106.253V115.873Z" fill="white"/>
<path fill-rule="evenodd" clip-rule="evenodd" d="M86.1011 115.873C86.1011 115.147 86.6895 114.559 87.4153 114.559H106.253C106.979 114.559 107.567 115.147 107.567 115.873V153.286C107.567 154.012 106.979 154.6 106.253 154.6H87.4153C86.6895 154.6 86.1011 154.012 86.1011 153.286V115.873ZM88.7296 117.187V151.971H104.939V117.187H88.7296Z" fill="#474747"/>
<path d="M106.253 137.515V153.286H72.7832C72.7832 144.612 79.8803 137.515 88.5544 137.515H93.0229" fill="white"/>
<path fill-rule="evenodd" clip-rule="evenodd" d="M74.157 151.971C74.827 144.632 81.0488 138.829 88.5542 138.829H93.0228C93.7486 138.829 94.337 138.24 94.337 137.514C94.337 136.789 93.7486 136.2 93.0228 136.2H88.5542C79.1542 136.2 71.4688 143.886 71.4688 153.286C71.4688 154.012 72.0572 154.6 72.783 154.6H106.253C106.979 154.6 107.567 154.012 107.567 153.286V137.514C107.567 136.789 106.979 136.2 106.253 136.2C105.527 136.2 104.939 136.789 104.939 137.514V151.971H74.157Z" fill="#474747"/>
<path d="M44.2199 81.0007C32.1287 83.8921 31.2525 95.8957 31.9534 101.416C35.1953 102.993 37.8238 105.972 38.7 109.827C40.3647 116.574 36.1591 123.495 29.4125 125.072C22.6659 126.737 15.7441 122.532 14.167 115.785C13.2908 112.105 14.0794 108.337 16.1822 105.446C8.3842 69.2599 37.8238 62.0752 37.8238 62.0752C37.8238 62.0752 59.115 77.4083 44.2199 81.0007Z" fill="white"/>
<path fill-rule="evenodd" clip-rule="evenodd" d="M38.5917 61.0085L37.8236 62.075L37.512 60.7982C37.8854 60.7071 38.2799 60.784 38.5917 61.0085ZM33.1834 100.574C32.9431 97.9551 33.1011 94.1849 34.5074 90.7161C36.0136 87.0008 38.9486 83.6123 44.5254 82.2787L44.5279 82.2781C46.5095 81.8002 48.0379 81.0943 49.1032 80.1304C50.2041 79.1344 50.7498 77.9145 50.8168 76.5945C50.8813 75.3225 50.4988 74.0462 49.9244 72.8607C49.346 71.6666 48.5326 70.482 47.6295 69.3645C45.824 67.1305 43.5572 65.0404 41.7671 63.5241C40.8672 62.7619 40.0776 62.1361 39.5117 61.6999C39.2286 61.4817 39.001 61.3106 38.843 61.1932C38.764 61.1345 38.7024 61.0892 38.66 61.0582L38.6108 61.0224L38.5974 61.0127L38.5936 61.0099L38.5924 61.009C38.592 61.0088 38.5917 61.0085 37.8236 62.075C37.512 60.7982 37.5112 60.7984 37.5102 60.7987L37.5076 60.7993L37.5005 60.8011L37.4784 60.8066C37.4601 60.8113 37.4348 60.8178 37.4028 60.8263C37.3387 60.8433 37.2477 60.8681 37.1317 60.9015C36.8998 60.9681 36.568 61.069 36.1528 61.2094C35.3227 61.4902 34.1565 61.9302 32.7868 62.5734C30.0514 63.8581 26.4795 65.9653 23.1541 69.2565C16.5064 75.8357 11.0192 86.9787 14.779 105.163C12.7072 108.294 11.9726 112.24 12.8876 116.087C14.6335 123.549 22.2721 128.183 29.7193 126.35C37.1772 124.602 41.8087 116.968 39.9787 109.524C39.0644 105.517 36.4467 102.379 33.1834 100.574ZM37.5599 63.5166C37.4009 63.5655 37.2115 63.6261 36.995 63.6994C36.2456 63.9529 35.1727 64.3569 33.9042 64.9526C31.3635 66.1459 28.0628 68.0965 25.0031 71.1248C18.9483 77.1172 13.6589 87.4986 17.4668 105.169C17.5456 105.535 17.4649 105.916 17.2449 106.219C15.3693 108.798 14.6575 112.171 15.4453 115.48L15.4466 115.486C16.8554 121.512 23.0549 125.287 29.0975 123.796L29.1131 123.793C35.1399 122.384 38.9148 116.184 37.4238 110.142L37.4182 110.118C36.6379 106.685 34.2936 104.016 31.3783 102.597C30.9794 102.403 30.7053 102.021 30.6494 101.581C30.2807 98.6771 30.3182 94.0531 32.0714 89.7285C33.8508 85.3394 37.3992 81.2806 43.9128 79.7226C45.6543 79.3024 46.7184 78.7435 47.3396 78.1813C47.9254 77.6513 48.16 77.0839 48.1916 76.4613C48.2257 75.7906 48.025 74.9688 47.5589 74.0067C47.0969 73.0531 46.4125 72.0404 45.5852 71.0167C43.9297 68.9684 41.8047 67.0007 40.0682 65.5298C39.2047 64.7984 38.4473 64.1982 37.9071 63.7818C37.7784 63.6827 37.6622 63.594 37.5599 63.5166Z" fill="#474747"/>
<path d="M39.0502 113.77C39.5759 106.761 34.3188 100.715 27.397 100.189L39.0502 113.77Z" fill="white"/>
<path fill-rule="evenodd" clip-rule="evenodd" d="M26.0868 100.09C26.1418 99.366 26.7731 98.8239 27.4969 98.8788C35.1392 99.4593 40.9413 106.133 40.3611 113.868C40.3068 114.592 39.676 115.135 38.9522 115.081C38.2284 115.026 37.6856 114.396 37.7399 113.672C38.2112 107.389 33.4991 101.971 27.2978 101.5C26.574 101.445 26.0319 100.814 26.0868 100.09Z" fill="#474747"/>
<path d="M83.5605 122.795C115.45 122.795 141.301 96.9437 141.301 65.0547C141.301 33.1656 115.45 7.31445 83.5605 7.31445C51.6715 7.31445 25.8203 33.1656 25.8203 65.0547C25.8203 96.9437 51.6715 122.795 83.5605 122.795Z" fill="white"/>
<path fill-rule="evenodd" clip-rule="evenodd" d="M83.5603 8.62854C52.3972 8.62854 27.1344 33.8913 27.1344 65.0545C27.1344 96.2177 52.3972 121.48 83.5603 121.48C114.724 121.48 139.986 96.2177 139.986 65.0545C139.986 33.8913 114.724 8.62854 83.5603 8.62854ZM24.5059 65.0545C24.5059 32.4396 50.9455 6 83.5603 6C116.175 6 142.615 32.4396 142.615 65.0545C142.615 97.6694 116.175 124.109 83.5603 124.109C50.9455 124.109 24.5059 97.6694 24.5059 65.0545Z" fill="#474747"/>
<path d="M78.8288 82.4028C96.6364 82.4028 111.072 67.967 111.072 50.1594C111.072 32.3519 96.6364 17.916 78.8288 17.916C61.0213 17.916 46.5854 32.3519 46.5854 50.1594C46.5854 67.967 61.0213 82.4028 78.8288 82.4028Z" fill="#FDCE00"/>
<path d="M67.7891 46.3916V48.2316C67.7891 50.9477 69.9795 53.1382 72.6957 53.1382C75.4118 53.1382 77.6023 50.9477 77.6023 48.2316V46.3916H67.7891Z" fill="white"/>
<path fill-rule="evenodd" clip-rule="evenodd" d="M66.9131 46.3918C66.9131 45.9079 67.3054 45.5156 67.7893 45.5156H77.6025C78.0864 45.5156 78.4787 45.9079 78.4787 46.3918V48.2318C78.4787 51.4318 75.8959 54.0146 72.6959 54.0146C69.4958 54.0146 66.9131 51.4318 66.9131 48.2318V46.3918ZM68.6654 47.268V48.2318C68.6654 50.464 70.4636 52.2622 72.6959 52.2622C74.9281 52.2622 76.7263 50.464 76.7263 48.2318V47.268H68.6654Z" fill="#474747"/>
<path d="M67.7894 43.3248C68.5152 43.3248 69.1036 42.7364 69.1036 42.0106C69.1036 41.2847 68.5152 40.6963 67.7894 40.6963C67.0635 40.6963 66.4751 41.2847 66.4751 42.0106C66.4751 42.7364 67.0635 43.3248 67.7894 43.3248Z" fill="#474747"/>
<path d="M77.6898 43.3248C78.4156 43.3248 79.004 42.7364 79.004 42.0106C79.004 41.2847 78.4156 40.6963 77.6898 40.6963C76.9639 40.6963 76.3755 41.2847 76.3755 42.0106C76.3755 42.7364 76.9639 43.3248 77.6898 43.3248Z" fill="#474747"/>
<path d="M97.1413 65.9176L90.3008 68.8623L96.8832 84.1529L103.724 81.2082L97.1413 65.9176Z" fill="#00BFEA"/>
<path fill-rule="evenodd" clip-rule="evenodd" d="M89.0934 69.382C88.8064 68.7153 89.1142 67.9421 89.7809 67.6551L96.6214 64.7104C97.2881 64.4234 98.0613 64.7312 98.3483 65.3979L104.931 80.6885C105.218 81.3552 104.91 82.1283 104.243 82.4153L97.4026 85.3601C96.7359 85.6471 95.9628 85.3393 95.6758 84.6726L89.0934 69.382ZM92.0274 69.5498L97.5704 82.4261L101.997 80.5207L96.4536 67.6444L92.0274 69.5498Z" fill="#474747"/>
<path d="M91.5124 59.5148L89.5005 60.3809L92.7224 67.8652L94.7343 66.9991L91.5124 59.5148Z" fill="white"/>
<path fill-rule="evenodd" clip-rule="evenodd" d="M88.2931 60.9005C88.0061 60.2338 88.3139 59.4607 88.9806 59.1737L90.9925 58.3076C91.6592 58.0206 92.4323 58.3284 92.7193 58.9951L95.9412 66.4795C96.2282 67.1461 95.9204 67.9193 95.2537 68.2063L93.2418 69.0724C92.5751 69.3594 91.802 69.0516 91.515 68.3849L88.2931 60.9005Z" fill="#474747"/>
<path opacity="0.4" d="M85.0497 61.1121C92.6953 61.1121 98.8933 54.9141 98.8933 47.2684C98.8933 39.6228 92.6953 33.4248 85.0497 33.4248C77.4041 33.4248 71.2061 39.6228 71.2061 47.2684C71.2061 54.9141 77.4041 61.1121 85.0497 61.1121Z" fill="white"/>
<path fill-rule="evenodd" clip-rule="evenodd" d="M85.05 34.7389C78.1302 34.7389 72.5206 40.3485 72.5206 47.2683C72.5206 54.188 78.1302 59.7976 85.05 59.7976C91.9698 59.7976 97.5794 54.188 97.5794 47.2683C97.5794 40.3485 91.9698 34.7389 85.05 34.7389ZM69.8921 47.2683C69.8921 38.8968 76.6785 32.1104 85.05 32.1104C93.4215 32.1104 100.208 38.8968 100.208 47.2683C100.208 55.6397 93.4215 62.4262 85.05 62.4262C76.6785 62.4262 69.8921 55.6397 69.8921 47.2683Z" fill="#474747"/>
<path d="M129.122 76.7079C129.998 82.6659 120.535 84.0678 115.015 84.8564C112.562 82.1402 108.97 80.5631 105.027 80.7383C98.0174 81.0888 92.6727 87.0468 93.0231 93.9686C93.3736 100.978 99.3316 106.323 106.253 105.972C110.109 105.797 113.438 103.957 115.541 101.153C152.516 98.3495 154.706 72.4146 138.322 59.0967" fill="white"/>
<path d="M129.122 76.7079C129.998 82.6659 120.535 84.0678 115.015 84.8564C112.562 82.1402 108.97 80.5631 105.027 80.7383C98.0173 81.0888 92.6727 87.0468 93.0231 93.9686C93.3736 100.978 99.3316 106.323 106.253 105.972C110.109 105.797 113.438 103.957 115.541 101.153C152.516 98.3495 154.706 72.4146 138.322 59.0967" stroke="#474747" stroke-width="3" stroke-miterlimit="10" stroke-linecap="round" stroke-linejoin="round"/>
<path fill-rule="evenodd" clip-rule="evenodd" d="M116.237 89.4342C114.042 83.5553 107.535 80.6417 101.631 82.8459C100.951 83.0997 100.194 82.7543 99.9403 82.0743C99.6864 81.3943 100.032 80.6372 100.712 80.3833C107.951 77.6808 115.988 81.251 118.7 88.5148C118.954 89.1948 118.608 89.9519 117.928 90.2058C117.248 90.4596 116.491 90.1142 116.237 89.4342Z" fill="#474747"/>
</svg>
