<svg width="25" height="24" viewBox="0 0 25 24" fill="none" xmlns="http://www.w3.org/2000/svg">
<path d="M12.4929 3C6.9611 3 2.5 6.47488 2.5 10.6934C2.5 13.4317 4.35582 15.8293 7.13954 17.1985L6.19736 20.6248C6.17959 20.6761 6.17686 20.7312 6.18947 20.784C6.20208 20.8368 6.22952 20.8851 6.26874 20.9236C6.32592 20.9727 6.39949 20.9998 6.47573 21C6.53895 20.9951 6.59892 20.9707 6.64704 20.9305L10.7013 18.2688C11.2997 18.3492 11.903 18.3909 12.5071 18.3938C18.0318 18.3938 22.5 14.9189 22.5 10.6934C22.5 6.46793 18.0175 3 12.4929 3Z" fill="black"/>
</svg>
