<svg width="36" height="37" viewBox="0 0 36 37" fill="none" xmlns="http://www.w3.org/2000/svg">
<path d="M18 36.1428C27.9411 36.1428 36 28.0839 36 18.1428C36 8.2017 27.9411 0.142822 18 0.142822C8.05887 0.142822 0 8.2017 0 18.1428C0 28.0839 8.05887 36.1428 18 36.1428Z" fill="#F1F3F5"/>
<path d="M21.6601 17.7829V19.1629C21.6601 21.2029 20.0401 22.8229 18.0001 22.8229C15.9601 22.8229 14.3401 21.2029 14.3401 19.1629V17.7829H21.6601Z" fill="white"/>
<path d="M14.3399 15.0229C14.7707 15.0229 15.1199 14.6736 15.1199 14.2429C15.1199 13.8121 14.7707 13.4629 14.3399 13.4629C13.9092 13.4629 13.5599 13.8121 13.5599 14.2429C13.5599 14.6736 13.9092 15.0229 14.3399 15.0229Z" fill="#495057"/>
<path d="M21.66 15.0229C22.0908 15.0229 22.44 14.6736 22.44 14.2429C22.44 13.8121 22.0908 13.4629 21.66 13.4629C21.2292 13.4629 20.88 13.8121 20.88 14.2429C20.88 14.6736 21.2292 15.0229 21.66 15.0229Z" fill="#495057"/>
<path fill-rule="evenodd" clip-rule="evenodd" d="M14.0701 17.7829C14.0701 17.6338 14.1909 17.5129 14.3401 17.5129H21.9301V19.1629C21.9301 21.352 20.1892 23.0929 18.0001 23.0929C15.8109 23.0929 14.0701 21.352 14.0701 19.1629V17.7829ZM21.3901 18.0529H14.6101V19.1629C14.6101 21.0538 16.1092 22.5529 18.0001 22.5529C19.8909 22.5529 21.3901 21.0538 21.3901 19.1629V18.0529Z" fill="#495057"/>
</svg>
