<svg width="121" height="120" viewBox="0 0 121 120" fill="none" xmlns="http://www.w3.org/2000/svg">
<path d="M60.5 120C93.6371 120 120.5 93.1371 120.5 60C120.5 26.8629 93.6371 0 60.5 0C27.3629 0 0.5 26.8629 0.5 60C0.5 93.1371 27.3629 120 60.5 120Z" fill="#F1F3F5"/>
<path d="M72.7002 58.8003V63.4003C72.7002 70.2003 67.3002 75.6003 60.5002 75.6003C53.7002 75.6003 48.3002 70.2003 48.3002 63.4003V58.8003H72.7002Z" fill="white"/>
<path d="M48.2998 49.6001C49.7357 49.6001 50.8998 48.4361 50.8998 47.0001C50.8998 45.5642 49.7357 44.4001 48.2998 44.4001C46.8639 44.4001 45.6998 45.5642 45.6998 47.0001C45.6998 48.4361 46.8639 49.6001 48.2998 49.6001Z" fill="#495057"/>
<path d="M72.7 49.6001C74.1359 49.6001 75.3 48.4361 75.3 47.0001C75.3 45.5642 74.1359 44.4001 72.7 44.4001C71.2641 44.4001 70.1 45.5642 70.1 47.0001C70.1 48.4361 71.2641 49.6001 72.7 49.6001Z" fill="#495057"/>
<path fill-rule="evenodd" clip-rule="evenodd" d="M47.4002 58.8003C47.4002 58.3032 47.8031 57.9003 48.3002 57.9003H73.6002V63.4003C73.6002 70.6974 67.7973 76.5003 60.5002 76.5003C53.2031 76.5003 47.4002 70.6974 47.4002 63.4003V58.8003ZM71.8002 59.7003H49.2002V63.4003C49.2002 69.7032 54.1973 74.7003 60.5002 74.7003C66.8031 74.7003 71.8002 69.7032 71.8002 63.4003V59.7003Z" fill="#495057"/>
</svg>
